<svg xmlns="http://www.w3.org/2000/svg" width="1600" height="900" viewBox="0 0 1600 900">
<rect width="1600" height="900" fill="#F7F8FA"/>
<rect x="34" y="34" width="1532" height="832" rx="36" fill="#FFFFFF" stroke="#E5E7EB" stroke-width="2"/>
<text x="70" y="125" fill="#111827" font-family="Segoe UI, Arial, sans-serif" font-size="54" font-weight="800">AI + Skill 接口自动化提效效果</text>
<text x="70" y="173" fill="#64748B" font-family="Segoe UI, Arial, sans-serif" font-size="24" font-weight="500">使用 AI 前 5 周 vs 使用 ai-api-test-skill 后 5 周</text>
<text x="70" y="268" fill="#111827" font-family="Segoe UI, Arial, sans-serif" font-size="28" font-weight="800">真实提升数据</text>
<rect x="70" y="305" width="470" height="118" rx="22" fill="#FFFFFF" stroke="#E5E7EB" stroke-width="2"/><rect x="70" y="305" width="8" height="118" rx="4" fill="#D45D4C"/>
<text x="105" y="347" fill="#111827" font-family="Segoe UI, Arial, sans-serif" font-size="25" font-weight="700">接口方法数</text>
<text x="105" y="387" fill="#D45D4C" font-family="Segoe UI, Arial, sans-serif" font-size="38" font-weight="800">-25.58%</text>
<text x="285" y="385" fill="#64748B" font-family="Segoe UI, Arial, sans-serif" font-size="20" font-weight="500">接口方法更聚焦</text>
<rect x="70" y="447" width="470" height="118" rx="22" fill="#FFFFFF" stroke="#E5E7EB" stroke-width="2"/><rect x="70" y="447" width="8" height="118" rx="4" fill="#1F8F6F"/>
<text x="105" y="489" fill="#111827" font-family="Segoe UI, Arial, sans-serif" font-size="25" font-weight="700">接口用例数</text>
<text x="105" y="529" fill="#1F8F6F" font-family="Segoe UI, Arial, sans-serif" font-size="38" font-weight="800">+93.43%</text>
<text x="285" y="527" fill="#64748B" font-family="Segoe UI, Arial, sans-serif" font-size="20" font-weight="500">用例产出接近翻倍</text>
<rect x="70" y="589" width="470" height="118" rx="22" fill="#FFFFFF" stroke="#E5E7EB" stroke-width="2"/><rect x="70" y="589" width="8" height="118" rx="4" fill="#2F68B1"/>
<text x="105" y="631" fill="#111827" font-family="Segoe UI, Arial, sans-serif" font-size="25" font-weight="700">接口+用例总数</text>
<text x="105" y="671" fill="#2F68B1" font-family="Segoe UI, Arial, sans-serif" font-size="38" font-weight="800">+46.48%</text>
<text x="285" y="669" fill="#64748B" font-family="Segoe UI, Arial, sans-serif" font-size="20" font-weight="500">综合产出明显提升</text>
<text x="70" y="790" fill="#334155" font-family="Segoe UI, Arial, sans-serif" font-size="24" font-weight="600">用更聚焦的接口方法维护成本，换来更高的接口用例产出。</text>
<text x="70" y="832" fill="#64748B" font-family="Segoe UI, Arial, sans-serif" font-size="18" font-weight="400">数据来源：个人负责的 EB 低代码模块真实工作记录。</text>
<text x="640" y="245" fill="#111827" font-family="Segoe UI, Arial, sans-serif" font-size="25" font-weight="750">接口方法数</text>
<rect x="640" y="275" width="170" height="34" rx="17" fill="#CBD5E1"/>
<rect x="640" y="327" width="126" height="34" rx="17" fill="#D45D4C"/>
<text x="656" y="300" fill="#64748B" font-family="Segoe UI, Arial, sans-serif" font-size="18" font-weight="600">使用 AI 前</text>
<text x="656" y="352" fill="#FFFFFF" font-family="Segoe UI, Arial, sans-serif" font-size="18" font-weight="700">使用 AI 后</text>
<text x="828" y="302" fill="#64748B" font-family="Segoe UI, Arial, sans-serif" font-size="22" font-weight="700">129</text>
<text x="784" y="354" fill="#D45D4C" font-family="Segoe UI, Arial, sans-serif" font-size="22" font-weight="800">96</text>
<text x="1320" y="332" fill="#D45D4C" font-family="Segoe UI, Arial, sans-serif" font-size="34" font-weight="800">-25.58%</text>
<text x="640" y="400" fill="#111827" font-family="Segoe UI, Arial, sans-serif" font-size="25" font-weight="750">接口用例数</text>
<rect x="640" y="430" width="261" height="34" rx="17" fill="#CBD5E1"/>
<rect x="640" y="482" width="506" height="34" rx="17" fill="#1F8F6F"/>
<text x="656" y="455" fill="#64748B" font-family="Segoe UI, Arial, sans-serif" font-size="18" font-weight="600">使用 AI 前</text>
<text x="656" y="507" fill="#FFFFFF" font-family="Segoe UI, Arial, sans-serif" font-size="18" font-weight="700">使用 AI 后</text>
<text x="919" y="457" fill="#64748B" font-family="Segoe UI, Arial, sans-serif" font-size="22" font-weight="700">198</text>
<text x="1164" y="509" fill="#1F8F6F" font-family="Segoe UI, Arial, sans-serif" font-size="22" font-weight="800">383</text>
<text x="1320" y="487" fill="#1F8F6F" font-family="Segoe UI, Arial, sans-serif" font-size="34" font-weight="800">+93.43%</text>
<text x="640" y="555" fill="#111827" font-family="Segoe UI, Arial, sans-serif" font-size="25" font-weight="750">接口+用例总数</text>
<rect x="640" y="585" width="432" height="34" rx="17" fill="#CBD5E1"/>
<rect x="640" y="637" width="633" height="34" rx="17" fill="#2F68B1"/>
<text x="656" y="610" fill="#64748B" font-family="Segoe UI, Arial, sans-serif" font-size="18" font-weight="600">使用 AI 前</text>
<text x="656" y="662" fill="#FFFFFF" font-family="Segoe UI, Arial, sans-serif" font-size="18" font-weight="700">使用 AI 后</text>
<text x="1090" y="612" fill="#64748B" font-family="Segoe UI, Arial, sans-serif" font-size="22" font-weight="700">327</text>
<text x="1291" y="664" fill="#2F68B1" font-family="Segoe UI, Arial, sans-serif" font-size="22" font-weight="800">479</text>
<text x="1320" y="642" fill="#2F68B1" font-family="Segoe UI, Arial, sans-serif" font-size="34" font-weight="800">+46.48%</text>
</svg>